<?xml version="1.0" encoding="utf-8"?>
<svg xmlns="http://www.w3.org/2000/svg" height="48" width="48" viewBox="0 0 48 48">
  <g>
    <path id="path1" transform="rotate(0,24,24) translate(11.1413748348579,11) scale(0.812500048428777,0.812500048428777)  " fill="#000000" d="M0.29299927,24.687989C0.37100238,24.687989 0.45797753,24.720002 0.54797411,24.785996 2.7429829,26.289002 5.1629982,27.464997 7.812994,28.312989 10.457985,29.162995 13.200998,29.586991 16.034007,29.586991 17.837995,29.586991 19.672988,29.392991 21.547013,29.005998 23.418992,28.619996 25.28902,28.024995 27.154012,27.220002 27.280995,27.15799 27.416005,27.100999 27.54601,27.056001 27.676015,27.005998 27.815022,26.944993 27.959004,26.86699 28.089009,26.800996 28.224019,26.784989 28.353993,26.817994 28.482015,26.849 28.577016,26.918 28.631001,27.030991 28.668019,27.110001 28.690999,27.197999 28.707021,27.291001 28.707021,27.480988 28.631001,27.630998 28.473012,27.740998 28.259023,27.927995 28.038014,28.099992 27.813008,28.248994 27.581014,28.399995 27.36202,28.552995 27.154012,28.711991 25.46001,29.81099 23.60399,30.636994 21.580003,31.181992 19.552016,31.729997 17.586987,31.999999 15.681011,31.999999 12.66401,31.999999 9.8379889,31.40799 7.2129874,30.226991 4.5869784,29.043 2.2429824,27.401994 0.17700195,25.304994 0.057983362,25.192994 -7.6246295E-08,25.091996 2.2737368E-13,24.994996 -7.6246295E-08,24.931992 0.018981871,24.877 0.057983395,24.830003 0.12399294,24.735993 0.20199592,24.687989 0.29299927,24.687989z M29.336995,24.024005C29.517997,24.024005 29.701011,24.032992 29.883018,24.047992 30.319022,24.082004 30.67501,24.134997 30.955009,24.213 31.236014,24.295001 31.42501,24.380998 31.526023,24.474992 31.549003,24.537003 31.580009,24.619996 31.608024,24.722001 31.636008,24.823991 31.651999,24.955995 31.651999,25.112L31.651999,25.304994C31.651999,25.61699 31.598014,26.005998 31.49401,26.462998 31.39202,26.918 31.254996,27.380998 31.086997,27.845994 30.922019,28.312989 30.69802,28.774995 30.414023,29.231995 30.125998,29.687989 29.799003,30.076997 29.425008,30.390992 29.288014,30.548997 29.159993,30.595994 29.049001,30.53299 28.939015,30.470002 28.907002,30.343995 28.961995,30.155L29.336995,29.067002C29.480002,28.623994 29.611014,28.18599 29.737998,27.752 29.864005,27.319001 29.947013,26.924989 29.982017,26.567994 30.021995,26.21399 29.989005,25.957002 29.884025,25.799989 29.727012,25.546998 29.373006,25.406999 28.826009,25.373994L28.489003,25.373994C28.043019,25.373994 27.597005,25.396989 27.154012,25.446 26.914021,25.507996 26.685992,25.537995 26.463,25.537995 26.245013,25.537995 26.03902,25.571992 25.854999,25.634995 25.698993,25.634995 25.606006,25.577989 25.581012,25.468995 25.556018,25.358994 25.616015,25.238999 25.776019,25.112 26.183002,24.796998 26.640002,24.537003 27.154012,24.330005 27.611012,24.205996 28.073018,24.119998 28.530995,24.073001 28.81902,24.041995 29.084004,24.024005 29.336995,24.024005z M18.572003,11.282994C18.145001,11.282994 17.711011,11.299001 17.284986,11.330007 16.861005,11.362996 16.457013,11.427998 16.075999,11.523 15.379008,11.776997 14.784984,12.176 14.283,12.720006 13.78599,13.261998 13.536997,14.060994 13.536997,15.118 13.536997,15.961002 13.720987,16.640002 14.087992,17.151996 14.457011,17.662997 14.961009,17.918002 15.602001,17.918002 15.707012,17.918002 15.801006,17.905993 15.875988,17.882998 15.954998,17.858004 16.02,17.845004 16.075999,17.845004 16.902997,17.623004 17.525006,17.056994 17.944989,16.146001 18.323987,15.457996 18.526013,14.797001 18.543988,14.157002 18.565015,13.519002 18.572003,12.823995 18.572003,12.075002z M16.141004,0L16.82301,0C17.645001,0 18.526013,0.13800046 19.465987,0.41000363 20.405013,0.68300614 21.220016,1.1730038 21.909013,1.8759989 22.315995,2.2960047 22.617997,2.7550043 22.822007,3.2460016 23.024003,3.7400047 23.160996,4.2550038 23.24199,4.7939977 23.319016,5.3329991 23.358994,5.9 23.358994,6.4919952L23.358994,8.336996 23.358994,14.325002C23.358994,15.235996 23.491014,15.937 23.749009,16.433001 24.009019,16.929995 24.30202,17.399997 24.616992,17.845004 24.719012,18.000003 24.771014,18.164004 24.771014,18.338 24.771014,18.509005 24.702991,18.657 24.577991,18.776996 24.253009,19.123004 23.834001,19.526996 23.319016,19.987994 22.806016,20.448993 22.375993,20.851001 22.031999,21.198001 21.796006,21.377993 21.508012,21.392993 21.164016,21.242999 20.623,20.716998 20.249007,20.306003 20.034987,20.019992L19.228988,18.888995C18.688001,19.507998 18.165998,20.002002 17.652997,20.373004 17.142011,20.739001 16.61601,21.015994 16.075999,21.198001 15.358012,21.377993 14.553996,21.468997 13.67399,21.468997 12.279,21.468997 11.109993,20.994998 10.164986,20.047992 9.2240057,19.101993 8.7529964,17.679995 8.7529964,15.787006 8.7529964,14.222997 9.0759954,12.916997 9.7259893,11.868993 10.374001,10.825002 11.241005,10.039999 12.328988,9.5110072 12.887003,9.2229976 13.482004,9.0040034 14.117991,8.8539943 14.751994,8.7009944 15.415996,8.5770015 16.09901,8.4800014 16.553998,8.4180049 16.986005,8.3700008 17.40199,8.336996 17.815015,8.3049983 18.207013,8.2569942 18.572003,8.1929988L18.572003,7.6680049C18.572003,7.2029938 18.569989,6.7240051 18.552991,6.2289948 18.53999,5.7350067 18.418988,5.2939977 18.184003,4.9120092 17.97099,4.5439977 17.695996,4.2800054 17.353009,4.1220006 17.010999,3.9620046 16.672009,3.8830022 16.328992,3.8830022L16.075999,3.8830022C15.486004,3.9449987 14.949992,4.1659993 14.470988,4.5399999 13.99,4.916007 13.681009,5.4809937 13.536997,6.2289948 13.512003,6.3889984 13.453989,6.5370087 13.362986,6.672995 13.271982,6.8089966 13.154001,6.9070038 12.997995,6.9729981L9.7729864,6.4800018C9.6429815,6.4480042 9.5189886,6.3759979 9.3989935,6.2679962 9.2760077,6.1579956 9.241004,5.9780029 9.2890081,5.7280029 9.4729986,4.6960057 9.7939825,3.8260032 10.249001,3.1230005 10.706001,2.4179987 11.247993,1.8430019 11.875009,1.3980021 12.501992,0.95100382 13.181986,0.62300095 13.918985,0.41100309 14.654002,0.20000454 15.396983,0.064002978 16.141004,0z" />
  </g>
</svg>

