<?xml version="1.0" encoding="utf-8"?>
<svg xmlns="http://www.w3.org/2000/svg" height="48" width="48" viewBox="0 0 48 48">
  <g>
    <path id="path1" transform="rotate(0,24,24) translate(15.6052494049072,11) scale(0.8125,0.8125)  " fill="#000000" d="M8.2250054,30.194L12.438995,30.194C12.940002,30.194 13.341003,30.596008 13.341003,31.096985 13.341003,31.598999 12.940002,32 12.438995,32L8.2250054,32C7.7239983,32 7.3229973,31.598999 7.3229973,31.096985 7.3229973,30.596008 7.7239983,30.194 8.2250054,30.194z M7.1219933,26.682983L13.442001,26.682983C13.943008,26.682983 14.345,27.084991 14.345,27.585999 14.345,28.087982 13.943008,28.488983 13.442001,28.488983L7.1219933,28.488983C6.6199944,28.488983 6.2189934,28.087982 6.2189934,27.585999 6.2189934,27.084991 6.6199944,26.682983 7.1219933,26.682983z M10.332,1.9060059C5.7180016,1.9060059 1.9060055,5.617981 1.9060054,10.231995 1.9060055,12.639984 2.9089961,15.247986 4.6139982,17.253998L4.7140038,17.454987C5.1159966,17.955994,7.1219933,20.563995,7.2219994,22.770996L13.442001,22.770996C13.641998,20.463989,15.848998,17.554993,15.949996,17.454987L16.050002,17.253998C17.755004,15.247986 18.658004,12.639984 18.658004,10.231995 18.757995,5.617981 14.945998,1.9060059 10.332,1.9060059z M10.332,0C16.050002,0 20.664001,4.6139832 20.664001,10.131989 20.664001,12.940002 19.561004,15.949982 17.555007,18.256989 17.555007,18.256989 17.555007,18.356995 17.453994,18.458008 16.550994,19.561005 15.246993,21.667999 15.246993,22.871002 15.246993,23.574005 14.846008,24.175995 14.244003,24.47699L13.943008,24.576996 9.1280052,24.677002 7.0220024,24.677002C6.1190026,24.677002 5.3159935,23.875 5.3159935,22.971985 5.3159935,21.768005 4.0120084,19.661011 3.2100062,18.557983 1.2030027,16.049988 -2.1760161E-07,13.040985 0,10.131989 -2.1760161E-07,4.6139832 4.6139982,0 10.332,0z" />
  </g>
</svg>

