<?xml version="1.0" encoding="utf-8"?>
<svg xmlns="http://www.w3.org/2000/svg" height="48" width="48" viewBox="0 0 48 48">
  <g>
    <path id="path1" transform="rotate(0,24,24) translate(16.2243752479553,11) scale(0.8125,0.8125)  " fill="#000000" d="M7.477005,30.005981L11.763,30.005981C12.262009,30.005981 12.76001,30.404999 12.76001,31.002991 12.76001,31.501984 12.361008,32 11.763,32L7.477005,32C6.9779968,32 6.4799957,31.600983 6.4799957,31.002991 6.4799957,30.404999 6.878006,30.005981 7.477005,30.005981z M6.3800049,25.819L12.860001,25.819C13.358002,25.819 13.85701,26.217987 13.85701,26.81601 13.85701,27.315002 13.458008,27.812988 12.860001,27.812988L6.3800049,27.812988C5.8820038,27.812988 5.3829956,27.414001 5.3829956,26.81601 5.3829956,26.217987 5.7819977,25.819 6.3800049,25.819z M9.5700073,0C14.852997,0 19.139999,4.2869873 19.139999,9.4700012 19.139999,12.061981 18.044006,14.953003 16.249008,17.246002L16.149002,17.346008C15.451996,18.242981 13.656998,20.834991 13.656998,22.529999 13.656998,22.82901 13.458008,23.127991 13.158997,23.22699L12.660004,23.22699 12.262009,23.22699 9.5700073,23.22699 8.7720032,23.22699 6.1809998,23.22699C5.7819977,23.22699 5.3829956,22.928009 5.3829956,22.429993 5.3829956,20.436005 3.1900024,17.644989 2.9909973,17.346008 1.0960083,15.152985 0,12.161987 0,9.4700012 0,4.2869873 4.2870026,0 9.5700073,0z" />
  </g>
</svg>

