<?xml version="1.0" encoding="utf-8"?>
<svg xmlns="http://www.w3.org/2000/svg" height="48" width="48" viewBox="0 0 48 48">
  <g>
    <path id="path1" transform="rotate(0,24,24) translate(11,15.9785943652875) scale(0.812499903142464,0.812499903142464)  " fill="#FFFFFF" d="M28.805753,0L31.974733,0C32.167724,0.27001924 31.208732,0.60900805 30.678737,0.9630113 22.839801,6.2050091 16.330854,13.03398 10.513902,19.745 6.9349381,16.519997 3.7629682,13.021987 0,9.9210077 0.63698797,9.253986 1.4519834,8.7079969 2.4479772,8.2830092 4.1869603,9.2220036 5.6669437,10.081988 7.7689305,11.090989 8.0639258,11.23201 10.055913,12.143997 10.22591,12.136001 10.603912,12.115982 11.617896,10.918992 12.2419,10.401994 16.76185,6.6610023 23.254806,2.4390226 28.805753,0z" />
  </g>
</svg>

