<?xml version="1.0" encoding="utf-8"?>
<svg xmlns="http://www.w3.org/2000/svg" height="48" width="48" viewBox="0 0 48 48">
  <g>
    <path id="path1" transform="rotate(0,24,24) translate(11,15.2741569876671) scale(0.8125,0.8125)  " fill="#000000" d="M18.133995,0C21.839996,-5.2434189E-08 25.320999,1.7499996 27.937996,4.9229727 30.556999,8.090025 32,12.310972 32,16.797971 32,18.403012 31.805,19.976987 31.443001,21.478999L26.917,21.478999C27.446999,20.018979 27.734001,18.439023 27.734001,16.797971 27.734001,13.690976 26.736,10.773008 24.918999,8.5739728 23.109001,6.3759752 20.697998,5.1710196 18.133995,5.1710196 15.569,5.1710196 13.158997,6.3759752 11.346001,8.5739728 10.001999,10.203001 9.1110001,12.231993 8.7360001,14.435971L13.334,20.672971 0,20.672971 1.0649948,4.0330191 5.4629974,9.9920025C6.1439972,8.1259747 7.0999985,6.4060045 8.3300018,4.9229727 10.946999,1.7499996 14.43,-5.2434189E-08 18.133995,0z" />
  </g>
</svg>

