<?xml version="1.0" encoding="utf-8"?>
<svg xmlns="http://www.w3.org/2000/svg" height="48" width="48" viewBox="0 0 48 48">
  <g>
    <path id="path1" transform="rotate(0,24,24) translate(14.9284415500969,11) scale(0.812499709427461,0.812499709427461)  " fill="#FFFFFF" d="M0,22.691865L9.6958332,27.864942 0.24500618,32.000013z M8.8988495,6.3116251L18.869686,12.034729 11.211813,25.370919 10.644821,23.665877 7.7198686,23.364879 7.2188854,21.531844 4.3549361,21.429853 3.5479436,19.422835 1.2459807,19.647815z M13.690775,0.00052993685C13.965764,-0.0064584891,14.233765,0.055554115,14.474758,0.19355655L21.534634,4.2476002C22.392622,4.7375976,22.586618,6.0146238,21.968632,7.0966398L21.126636,8.5616571 10.95782,2.7255753 11.799801,1.2555529C12.243793,0.48054798,12.988775,0.017528671,13.690775,0.00052993685z" />
  </g>
</svg>

