<?xml version="1.0" encoding="utf-8"?>
<svg xmlns="http://www.w3.org/2000/svg" height="48" width="48" viewBox="0 0 48 48">
  <g>
    <path id="path1" transform="rotate(0,24,24) translate(11.2835624814034,11) scale(0.8125,0.8125)  " fill="#000000" d="M15.651,14.254997C16.44899,14.254997 17.046997,14.853996 17.046997,15.651001 17.046997,16.448997 16.44899,17.046997 15.651,17.046997 14.854003,17.046997 14.255996,16.448997 14.255996,15.651001 14.255996,14.853996 14.854003,14.254997 15.651,14.254997z M7.6759947,13.458C7.1779936,13.458 6.7789916,13.857002 6.7789916,14.354996 6.7789916,14.753998 6.9779967,15.053001 7.2769927,15.153L7.1779936,17.246002 8.1750029,17.246002 8.0749968,15.153C8.3739928,15.053001 8.5729979,14.753998 8.5729979,14.354996 8.5729979,13.857002 8.1750029,13.458 7.6759947,13.458z M15.651,10.667C12.95999,10.667 10.666992,12.860001 10.666992,15.651001 10.666992,18.442001 12.86,20.636002 15.651,20.636002 18.343002,20.636002 20.636,18.442001 20.636,15.651001 20.636,12.860001 18.343002,10.667 15.651,10.667z M5.5829924,5.1839981L25.719999,5.1839981C26.018995,5.1839981,26.218,5.3829994,26.218,5.6819992L26.218,9.4699974 24.024992,9.4699974 24.024992,11.862999 26.218,11.862999 26.218,20.137001 24.024992,20.137001 24.024992,22.529999 26.218,22.529999 26.218,26.218002C26.218,26.516998,26.018995,26.716995,25.719999,26.716995L5.5829924,26.716995C5.2839964,26.716995,5.0839995,26.516998,5.0839995,26.218002L5.0839995,5.6819992C5.0839995,5.3829994,5.2839964,5.1839981,5.5829924,5.1839981z M4.4859923,4.086998C4.1869963,4.086998,3.9879912,4.3859978,3.9879914,4.5859985L3.9879914,27.214996C3.9879912,27.514,4.1869963,27.712997,4.4859923,27.712997L26.617002,27.712997C26.915998,27.712997,27.114988,27.514,27.114988,27.214996L27.114988,22.529999 29.407987,22.529999 29.407987,20.137001 27.114988,20.137001 27.114988,11.862999 29.407987,11.862999 29.407987,9.3709984 27.114988,9.3709984 27.114988,4.5859985C27.114988,4.2869987,26.915998,4.086998,26.617002,4.086998z M0.69799803,0L30.604994,0C31.002989,0,31.302,0.29899979,31.302,0.69799805L31.302,31.302002C31.302,31.700996,31.002989,32,30.604994,32L0.69799803,32C0.29899608,31.900002,1.3328781E-07,31.600998,0,31.202995L0,0.69799805C1.3328781E-07,0.29899979,0.29899608,0,0.69799803,0z" />
  </g>
</svg>

