<?xml version="1.0" encoding="utf-8"?>
<svg xmlns="http://www.w3.org/2000/svg" height="32" width="32" viewBox="0 0 32 32">
  <g>
    <path id="path1" transform="rotate(0,16,16) translate(7.22937560081482,6) scale(0.625,0.625)  " fill="#FFFFFF" d="M2.0010067,16.565002L2.0010067,30.118042 26.066001,30.118042 26.066001,16.565002z M14.033992,1.882019C9.6719941,1.882019,6.1240061,5.2210083,6.1240061,9.3250122L6.1240061,14.682007 21.941995,14.682007 21.941995,9.3250122C21.941995,5.2210083,18.39399,1.882019,14.033992,1.882019z M14.033992,0C19.497002,0,23.941993,4.184021,23.941993,9.3250122L23.941993,14.682007 28.065999,14.682007 28.065999,32 0,32 0,14.682007 4.1240066,14.682007 4.1240066,9.3250122C4.1240066,4.184021,8.5700043,0,14.033992,0z" />
  </g>
</svg>

