<?xml version="1.0" encoding="utf-8"?>
<svg xmlns="http://www.w3.org/2000/svg" height="48" width="48" viewBox="0 0 48 48">
  <g>
    <path id="path1" transform="rotate(0,24,24) translate(11,11) scale(0.8125,0.8125)  " fill="#000000" d="M9.9999771,26.000011L21.999977,26.000011C22.551977,26.000011 22.999977,26.447012 22.999977,27.000011 22.999977,27.553011 22.551977,28.000011 21.999977,28.000011L9.9999771,28.000011C9.4479771,28.000011 8.9999771,27.553011 8.9999771,27.000011 8.9999771,26.447012 9.4479771,26.000011 9.9999771,26.000011z M23.66515,11.864373L20.730131,16.627228C20.468128,17.053215 20.013126,17.319206 19.514122,17.339205 19.01112,17.354206 18.541117,17.132212 18.245115,16.730225L16.0131,13.703317 10.094087,22.000011 26.000977,22.000011 26.000547,15.116402z M10.799009,10.05103C10.24801,10.05103 9.7990093,10.49903 9.7990093,11.05103 9.7990093,11.60303 10.24801,12.05103 10.799009,12.05103 11.35001,12.05103 11.799009,11.60303 11.799009,11.05103 11.799009,10.49903 11.35001,10.05103 10.799009,10.05103z M10.799009,8.0510302C12.45301,8.0510302 13.799009,9.3970299 13.799009,11.05103 13.799009,12.70503 12.45301,14.05103 10.799009,14.05103 9.14501,14.05103 7.7990098,12.70503 7.7990098,11.05103 7.7990098,9.3970299 9.14501,8.0510302 10.799009,8.0510302z M5.9999766,6.0000114L5.9999766,22.000011 7.6391659,22.000011 7.6570473,21.972065 14.785092,11.98037C15.064095,11.590382 15.516097,11.355389 15.9961,11.352388 16.000101,11.351389 16.003101,11.351389 16.007101,11.351389 16.482103,11.351389 16.933105,11.579382 17.215109,11.96337L19.415123,14.948278 22.35614,10.175425C22.620142,9.746438 23.078146,9.4804459 23.580149,9.4624462 24.077152,9.4504471 24.559155,9.6774397 24.852158,10.087427L26.000332,11.686667 25.999977,6.0000114z M5.9999766,4.0000114L25.999977,4.0000114C27.102976,4.0000114,27.999977,4.8970113,27.999977,6.0000114L27.999977,22.000011C27.999977,23.103012,27.102976,24.000011,25.999977,24.000011L5.9999766,24.000011C4.8969765,24.000011,3.9999766,23.103012,3.9999766,22.000011L3.9999766,6.0000114C3.9999766,4.8970113,4.8969765,4.0000114,5.9999766,4.0000114z M2,2L2,30 30.000977,30 30,2z M2,0L30,0C31.102966,0,32,0.89703369,32,2L32,30C32,31.103027,31.102966,32,30,32L2,32C0.89697266,32,0,31.103027,0,30L0,2C0,0.89703369,0.89697266,0,2,0z" />
  </g>
</svg>

