<?xml version="1.0" encoding="utf-8"?>
<svg xmlns="http://www.w3.org/2000/svg" height="48" width="48" viewBox="0 0 48 48">
  <g>
    <path id="path1" transform="rotate(0,24,24) translate(11,11.5687498450279) scale(0.8125,0.8125)  " fill="#FFFFFF" d="M5,15.000012C5.1000061,15.000012 5.1000061,15.000012 5.2000122,15.099988 5.2999878,15.199964 5.2999878,15.3 5.2999878,15.399977 5.3999939,16.699965 5.7999878,17.899978 6.3999939,19.099992 7.2999878,20.800006 8.7000122,22.099994 10.200012,22.899983L10.799988,20.500016C10.799988,20.39998 11,20.300004 11.100006,20.199967 11.200012,20.199967 11.399994,20.199967 11.5,20.39998L13.799988,24.099996 15.899994,27.399987C16,27.500024 16,27.599999 15.899994,27.699975 15.899994,27.800012 15.799988,27.899987 15.700012,27.899987L12.299988,29.000024 7.5,30.600001C7.3999939,30.600001 7.2000122,30.600001 7.1000061,30.500026 7,30.399989 7,30.199977 7.1000061,30.100001L8.2999878,27.800012C5.6000061,26.500022 3.2000122,24.399983 1.7000122,21.500018 0.70001221,19.699967 0.20001221,17.800002 0,15.899977 0,15.699965 0.1000061,15.500013 0.29998779,15.500013z M25.200012,7.0000057C25.299988,7.0000057,25.399994,7.0000057,25.399994,7.0999818L28,9.399971 31.799988,12.699962C32,12.899974 32,13.00001 32,13.199963 32,13.299999 31.799988,13.399975 31.700012,13.399975L29.100006,13.500011C29.299988,16.500014 28.700012,19.599992 26.899994,22.399981 25.799988,24.099996 24.399994,25.599998 22.899994,26.699973 22.700012,26.80001 22.5,26.80001 22.399994,26.599998L19.700012,23.00002C19.600006,22.899983 19.600006,22.800006 19.600006,22.699969 19.600006,22.599994 19.700012,22.500018 19.799988,22.500018 20.799988,21.800006 21.799988,20.899981 22.5,19.699967 23.5,18.09999 24,16.300002 23.899994,14.500012L21.5,15.199964C21.399994,15.199964 21.200012,15.199964 21.100006,15.099988 21,15.000012 21,14.8 21.100006,14.699964L23.200012,10.799996 25,7.299994C25,7.0999818,25.100006,7.0999818,25.200012,7.0000057z M15,0C17,1.9197614E-08 19,0.39996372 20.799988,1.1999521 21,1.2999888 21.100006,1.5000013 21,1.6999526L19.299988,6.0000052C19.299988,6.0999808,19.200012,6.1999564,19.100006,6.1999564L18.799988,6.1999564C17.600006,5.6999559 16.399994,5.3999681 15,5.3999681 13.100006,5.3999681 11.299988,6.0000052 9.7999878,7.0000057L11.600006,8.6999588C11.700012,8.7999954 11.700012,9.0000076 11.700012,9.0999832 11.700012,9.1999588 11.5,9.2999954 11.399994,9.2999954L7,9.5000076 3.1000061,9.6999597C3,9.6999597 2.8999939,9.6999597 2.7999878,9.5999832 2.7000122,9.5000076 2.7000122,9.399971 2.7000122,9.2999954L3.2999878,5.7999925 4.1000061,0.89996431C4.1000061,0.79998849 4.2000122,0.5999761 4.3999939,0.59997604 4.5,0.5999761 4.7000122,0.5999761 4.7999878,0.69995163L6.2999878,2.7999902C8.7000122,1.0999765,11.700012,1.9197614E-08,15,0z" />
  </g>
</svg>

